<?xml version="1.0" standalone="no"?>
<!DOCTYPE svg PUBLIC "-//W3C//DTD SVG 20010904//EN"
 "http://www.w3.org/TR/2001/REC-SVG-20010904/DTD/svg10.dtd">
<svg version="1.0" xmlns="http://www.w3.org/2000/svg"
 width="1144.000000pt" height="1144.000000pt" viewBox="0 0 1144.000000 1144.000000"
 preserveAspectRatio="xMidYMid meet">
<metadata>
Created by potrace 1.11, written by Peter Selinger 2001-2013
</metadata>
<g transform="translate(0.000000,1144.000000) scale(0.100000,-0.100000)"
fill="#000000" stroke="none">
<path d="M0 5720 l0 -5720 5720 0 5720 0 0 5720 0 5720 -5720 0 -5720 0 0
-5720z m5885 3399 c183 -25 468 -123 730 -249 380 -184 737 -487 990 -839 273
-380 464 -844 571 -1383 l27 -137 122 -129 c342 -360 556 -718 716 -1202 117
-355 153 -556 215 -1217 l5 -61 102 -4 c81 -2 111 -8 148 -26 59 -29 112 -82
141 -141 l23 -46 0 -605 0 -605 -23 -46 c-29 -59 -82 -112 -141 -141 l-46 -23
-3775 0 -3775 0 -46 23 c-59 29 -112 82 -141 141 l-23 46 0 605 0 605 23 46
c29 59 82 112 141 141 38 19 66 24 158 26 l112 4 5 61 c4 34 15 157 26 272 36
385 86 632 189 945 159 480 373 841 705 1189 l132 139 38 187 c181 888 602
1564 1241 1994 72 48 173 110 225 138 256 137 604 263 805 292 87 12 291 13
380 0z"/>
<path d="M5605 8943 c-302 -37 -718 -201 -1021 -403 -202 -134 -410 -325 -556
-508 -225 -283 -422 -672 -532 -1049 -38 -131 -101 -413 -112 -503 -7 -54 -9
-57 -133 -185 -70 -71 -152 -159 -182 -195 -316 -367 -550 -887 -655 -1450
-26 -143 -64 -446 -64 -517 l0 -43 3350 0 3350 0 0 40 c0 23 -7 105 -15 183
-72 664 -282 1236 -615 1675 -49 64 -157 189 -240 276 -83 88 -152 169 -155
180 -2 12 -14 73 -25 136 -101 556 -330 1083 -634 1460 -232 287 -522 513
-873 682 -344 165 -674 247 -888 221z m580 -2633 c559 -18 832 -56 990 -138
138 -72 260 -223 300 -372 22 -81 21 -936 0 -1028 -29 -121 -110 -217 -230
-274 l-70 -33 -1475 0 -1475 0 -70 33 c-120 57 -201 153 -230 274 -21 89 -22
947 -1 1023 66 240 246 392 536 455 266 58 1000 84 1725 60z"/>
<path d="M5195 6133 c-177 -8 -595 -35 -665 -42 -41 -4 83 -5 275 -2 449 8
1465 8 1840 0 309 -6 285 0 -100 26 -229 15 -1160 28 -1350 18z"/>
<path d="M4273 5910 c-23 -5 -55 -16 -71 -24 -42 -22 -101 -93 -111 -135 -5
-20 -11 -238 -13 -486 -3 -444 -2 -451 19 -497 25 -54 60 -90 118 -122 39 -21
49 -21 600 -24 l560 -3 29 56 c56 109 179 185 296 185 118 0 244 -79 296 -186
l27 -55 556 3 c548 3 557 3 603 25 54 25 90 60 122 118 21 39 21 48 21 505 0
463 0 465 -23 507 -32 61 -83 108 -138 127 -43 14 -180 16 -1448 15 -771 -1
-1420 -5 -1443 -9z"/>
<path d="M1915 3766 c-41 -18 -83 -69 -90 -109 -3 -18 -5 -289 -3 -604 3 -559
3 -572 24 -599 11 -15 33 -37 48 -48 l27 -21 3769 0 3769 0 27 21 c15 11 37
33 48 48 21 27 21 37 21 626 0 589 0 599 -21 626 -11 15 -33 37 -48 48 l-27
21 -3757 2 c-3108 2 -3762 0 -3787 -11z m3176 -371 c43 -23 69 -71 69 -127 l0
-48 -65 0 -65 0 0 30 0 30 -225 0 -225 0 0 -80 0 -80 241 0 c225 0 244 -1 274
-20 55 -34 67 -74 63 -206 l-3 -114 -38 -37 -37 -38 -260 -3 c-225 -3 -265 -1
-295 14 -47 22 -75 70 -75 128 l0 46 65 0 65 0 0 -30 0 -30 225 0 225 0 0 80
0 80 -235 0 c-254 0 -266 2 -315 55 -23 25 -25 35 -28 145 -4 134 6 167 61
200 30 18 52 20 290 20 213 0 263 -3 288 -15z m820 0 c16 -9 39 -30 49 -48 19
-30 20 -52 20 -339 l0 -308 -65 0 -65 0 0 120 0 120 -225 0 -225 0 0 -120 0
-120 -65 0 -65 0 0 301 c0 434 -22 409 353 409 213 0 263 -3 288 -15z m458
-136 c68 -82 127 -149 131 -147 4 2 63 69 130 151 l123 147 73 0 74 0 0 -355
0 -355 -65 0 -65 0 -2 260 -3 260 -134 -159 -133 -160 -132 156 -131 156 -3
-256 -2 -257 -65 0 -65 0 0 355 0 355 73 -1 72 0 124 -150z"/>
<path d="M5400 3175 l0 -105 225 0 225 0 0 105 0 105 -225 0 -225 0 0 -105z"/>
</g>
</svg>
